<svg xmlns="http://www.w3.org/2000/svg" viewBox="0 0 300 80" width="300" height="80">
  <!-- Open hands cupping -->
  <path d="M18 52 Q12 48 10 40 Q9 34 14 32 Q18 30 20 35 L22 44 Q24 38 28 36 Q33 34 34 40 L36 52 Q30 58 24 58 Q20 58 18 52 Z" fill="#1B4F8A" opacity="0.9"/>
  <path d="M42 52 Q48 48 50 40 Q51 34 46 32 Q42 30 40 35 L38 44 Q36 38 32 36 Q27 34 26 40 L24 52 Q30 58 36 58 Q40 58 42 52 Z" fill="#1B4F8A" opacity="0.9"/>
  <!-- Hands highlight -->
  <path d="M20 50 Q24 54 30 54 Q36 54 40 50" stroke="#1B4F8A" stroke-width="1.5" fill="none" opacity="0.5"/>
  <!-- Open book sitting in hands -->
  <rect x="22" y="30" width="8" height="12" rx="1" fill="#D4A017"/>
  <rect x="30" y="30" width="8" height="12" rx="1" fill="#C49010"/>
  <line x1="30" y1="30" x2="30" y2="42" stroke="#1A1A2E" stroke-width="1"/>
  <path d="M22 30 Q26 28 30 30" stroke="#D4A017" stroke-width="1" fill="none"/>
  <path d="M30 30 Q34 28 38 30" stroke="#C49010" stroke-width="1" fill="none"/>
  <!-- Lines on book pages -->
  <line x1="24" y1="34" x2="28" y2="34" stroke="#fff" stroke-width="0.8" opacity="0.7"/>
  <line x1="24" y1="37" x2="28" y2="37" stroke="#fff" stroke-width="0.8" opacity="0.7"/>
  <line x1="24" y1="40" x2="28" y2="40" stroke="#fff" stroke-width="0.8" opacity="0.7"/>
  <line x1="32" y1="34" x2="36" y2="34" stroke="#fff" stroke-width="0.8" opacity="0.7"/>
  <line x1="32" y1="37" x2="36" y2="37" stroke="#fff" stroke-width="0.8" opacity="0.7"/>
  <line x1="32" y1="40" x2="36" y2="40" stroke="#fff" stroke-width="0.8" opacity="0.7"/>
  <!-- Green leaf emerging from book -->
  <path d="M30 30 Q26 22 28 16 Q34 14 36 20 Q38 26 30 30 Z" fill="#2E8B57"/>
  <path d="M30 30 Q32 22 34 18" stroke="#1a5c38" stroke-width="0.8" fill="none"/>
  <!-- Leaf vein -->
  <line x1="30" y1="28" x2="32" y2="20" stroke="#fff" stroke-width="0.5" opacity="0.5"/>
  <!-- Foundation name text -->
  <text x="68" y="36" font-family="Georgia, serif" font-size="22" font-weight="700" fill="#1B4F8A" letter-spacing="0.5">Dola</text>
  <text x="68" y="58" font-family="Georgia, serif" font-size="18" font-weight="400" fill="#2E8B57" letter-spacing="2">FOUNDATION</text>
  <!-- Tagline -->
  <line x1="68" y1="64" x2="230" y2="64" stroke="#D4A017" stroke-width="1.5"/>
  <text x="68" y="74" font-family="Arial, sans-serif" font-size="9" fill="#1B4F8A" letter-spacing="1.5" opacity="0.8">TRANSFORMING LIVES · BUILDING FUTURES</text>
</svg>
